Sprint_08100001_forces_filt15Hz.mot
version=1
nRows=19
nColumns=19
inDegrees=yes
endheader
time	R_ground_force_vx	R_ground_force_vy	R_ground_force_vz	R_ground_force_px	R_ground_force_py	R_ground_force_pz	R_ground_torque_x	R_ground_torque_y	R_ground_torque_z	L_ground_force_vx	L_ground_force_vy	L_ground_force_vz	L_ground_force_px	L_ground_force_py	L_ground_force_pz	L_ground_torque_x	L_ground_torque_y	L_ground_torque_z	
4.390500	  0.000000	  0.000000	  0.000000	  0.040675	  0.000000	 -0.234295	  0.000000	  0.000000	  0.000000	  0.000000	  0.000000	  0.000000	  1.160439	  0.000000	 -0.368794	  0.000000	  0.000000	  0.000000
4.391000	  0.000000	  0.000000	  0.000000	  0.042134	  0.000000	 -0.234404	  0.000000	  0.000000	  0.000000	  0.000000	  0.000000	  0.000000	  1.159057	  0.000000	 -0.368166	  0.000000	  0.000000	  0.000000
4.391500	  0.000000	  0.000000	  0.000000	  0.043593	  0.000000	 -0.234513	  0.000000	  0.000000	  0.000000	  0.000000	  0.000000	  0.000000	  1.157676	  0.000000	 -0.367538	  0.000000	  0.000000	  0.000000
4.392000	  0.000000	  0.000000	  0.000000	  0.045052	  0.000000	 -0.234622	  0.000000	  0.000000	  0.000000	  0.000000	  0.000000	  0.000000	  1.156295	  0.000000	 -0.366910	  0.000000	  0.000000	  0.000000
4.392500	  0.000000	  0.000000	  0.000000	  0.046511	  0.000000	 -0.234731	  0.000000	  0.000000	  0.000000	  0.000000	  0.000000	  0.000000	  1.154914	  0.000000	 -0.366281	  0.000000	  0.000000	  0.000000
4.393000	  0.000000	  0.000000	  0.000000	  0.047970	  0.000000	 -0.234840	  0.000000	  0.000000	  0.000000	  0.000000	  0.000000	  0.000000	  1.153533	  0.000000	 -0.365653	  0.000000	  0.000000	  0.000000
4.393500	  0.000000	  0.000000	  0.000000	  0.049429	  0.000000	 -0.234949	  0.000000	  0.000000	  0.000000	  0.000000	  0.000000	  0.000000	  1.152152	  0.000000	 -0.365025	  0.000000	  0.000000	  0.000000
4.394000	  0.000000	  0.000000	  0.000000	  0.050888	  0.000000	 -0.235057	  0.000000	  0.000000	  0.000000	  0.000000	  0.000000	  0.000000	  1.150771	  0.000000	 -0.364397	  0.000000	  0.000000	  0.000000
4.394500	  0.000000	  0.000000	  0.000000	  0.052346	  0.000000	 -0.235166	  0.000000	  0.000000	  0.000000	  0.000000	  0.000000	  0.000000	  1.149390	  0.000000	 -0.363769	  0.000000	  0.000000	  0.000000
4.395000	  0.000000	  0.000000	  0.000000	  0.053805	  0.000000	 -0.235275	  0.000000	  0.000000	  0.000000	  0.000000	  0.000000	  0.000000	  1.148009	  0.000000	 -0.363140	  0.000000	  0.000000	  0.000000
4.395500	  0.000000	  0.000000	  0.000000	  0.055504	  0.000000	 -0.235279	  0.000000	  0.000000	  0.000000	  0.000000	  0.000000	  0.000000	  1.146352	  0.000000	 -0.362672	  0.000000	  0.000000	  0.000000
4.396000	  0.000000	  0.000000	  0.000000	  0.057202	  0.000000	 -0.235283	  0.000000	  0.000000	  0.000000	  0.000000	  0.000000	  0.000000	  1.144695	  0.000000	 -0.362204	  0.000000	  0.000000	  0.000000
4.396500	  0.000000	  0.000000	  0.000000	  0.058901	  0.000000	 -0.235286	  0.000000	  0.000000	  0.000000	  0.000000	  0.000000	  0.000000	  1.143038	  0.000000	 -0.361736	  0.000000	  0.000000	  0.000000
4.397000	  0.000000	  0.000000	  0.000000	  0.060599	  0.000000	 -0.235290	  0.000000	  0.000000	  0.000000	  0.000000	  0.000000	  0.000000	  1.141382	  0.000000	 -0.361267	  0.000000	  0.000000	  0.000000
4.397500	  0.000000	  0.000000	  0.000000	  0.062298	  0.000000	 -0.235293	  0.000000	  0.000000	  0.000000	  0.000000	  0.000000	  0.000000	  1.139725	  0.000000	 -0.360799	  0.000000	  0.000000	  0.000000
4.398000	  0.000000	  0.000000	  0.000000	  0.063996	  0.000000	 -0.235297	  0.000000	  0.000000	  0.000000	  0.000000	  0.000000	  0.000000	  1.138068	  0.000000	 -0.360331	  0.000000	  0.000000	  0.000000
4.398500	  0.000000	  0.000000	  0.000000	  0.065695	  0.000000	 -0.235301	  0.000000	  0.000000	  0.000000	  0.000000	  0.000000	  0.000000	  1.136412	  0.000000	 -0.359863	  0.000000	  0.000000	  0.000000
4.399000	  0.000000	  0.000000	  0.000000	  0.067393	  0.000000	 -0.235304	  0.000000	  0.000000	  0.000000	  0.000000	  0.000000	  0.000000	  1.134755	  0.000000	 -0.359394	  0.000000	  0.000000	  0.000000
4.399500	  0.000000	  0.000000	  0.000000	  0.069092	  0.000000	 -0.235308	  0.000000	  0.000000	  0.000000	  0.000000	  0.000000	  0.000000	  1.133098	  0.000000	 -0.358926	  0.000000	  0.000000	  0.000000
